<svg viewBox="0 0 1281 720" fill="none" xmlns="http://www.w3.org/2000/svg">
<path d="M469.333 12L457 0H697.333L685 12H469.333Z" fill="#3D3D3D"/>
<path d="M709.667 0L697.333 12H810.667L823 0H709.667Z" fill="#3D3D3D"/>
<path d="M29.5455 28.315L0 58V0H75L46.8182 28.315H29.5455Z" fill="#262626"/>
<path d="M29.5455 691.685L0 662V720H75L46.8182 691.685H29.5455Z" fill="url(#paint0_linear_75_609)"/>
<path d="M1251.45 691.685L1281 662V720H1206L1234.18 691.685H1251.45Z" fill="url(#paint1_linear_75_609)"/>
<path d="M1251.45 28.315L1281 58V0H1206L1234.18 28.315H1251.45Z" fill="#262626"/>
<path fill-rule="evenodd" clip-rule="evenodd" d="M498.748 30H498.887H784.029H784.168L784.265 30.0979L806 51.8857H872.351H872.489L872.587 51.9836L900.373 79.8382L900.608 80.0736L900.373 80.309L695.282 285.902L695.185 286H695.046H578.277H578.139L578.041 285.902L577.806 285.667H577.804L563.471 271.333H563.508L379.235 86.6094L379 86.374L379.235 86.1386L413.306 51.9836L413.404 51.8857H413.542H476.916L498.651 30.0979L498.748 30ZM599.804 285.333L596.804 282.333H577.804L566.804 271.333H564.449L379.942 86.374L413.681 52.5524H477.054H477.193L477.29 52.4545L482.732 47H490.036L494.877 42.202H499.973L510.165 32.101H529.021L530.468 30.6667H752.474L753.921 32.101H772.776L782.968 42.202H788.064L792.905 47H800.185L805.626 52.4545L805.723 52.5524H805.862H872.213L899.667 80.0736L708.874 271.333H706.138L695.138 282.333H676.138L673.138 285.333H599.804Z" fill="#4B4B4B"/>
<path fill-rule="evenodd" clip-rule="evenodd" d="M498.748 690H498.887H784.029H784.168L784.265 689.902L806 668.114H872.351H872.489L872.587 668.016L900.373 640.162L900.608 639.926L900.373 639.691L695.282 434.098L695.185 434H695.046H578.277H578.139L578.041 434.098L577.806 434.333H577.804L563.471 448.667H563.508L379.235 633.391L379 633.626L379.235 633.861L413.306 668.016L413.404 668.114H413.542H476.916L498.651 689.902L498.748 690ZM599.804 434.667L596.804 437.667H577.804L566.804 448.667H564.449L379.942 633.626L413.681 667.448H477.054H477.193L477.29 667.546L482.732 673H490.036L494.877 677.798H499.973L510.165 687.899H529.021L530.468 689.333H752.474L753.921 687.899H772.776L782.968 677.798H788.064L792.905 673H800.185L805.626 667.546L805.723 667.448H805.862H872.213L899.667 639.926L708.874 448.667H706.138L695.138 437.667H676.138L673.138 434.667H599.804Z" fill="#4B4B4B"/>
<path fill-rule="evenodd" clip-rule="evenodd" d="M93.4738 0.0355835H93.6864H416.603H416.815L416.963 0.18874L581.85 171.396H733.15L898.037 0.18874L898.185 0.0355835H898.398H1221.31H1221.53L1221.67 0.18874L1281 61.7842L1280.28 62.4779L1221.1 1.03558H947.953L937.869 11.5091H900.891L880.515 32.6723H868.141L718.729 187.811L718.582 187.964H718.369H657.5H596.631H596.418L596.271 187.811L446.859 32.6723H433.453L413.078 11.5091H376.1L366.016 1.03558H93.8991L34.7249 62.4779L34.0046 61.7842L93.3263 0.18874L93.4738 0.0355835Z" fill="#ACACAC"/>
<path d="M1228.5 493L1247 511.5V554V617.5L1214 650.5V635.5L1224.5 625V613L1243.5 594V557.5L1247 554V511.5L1228.5 493V339.25V268L1237.75 258.75L1247 249.5V144L1238 135V100L1225.5 87.5V81.5L1247 103V144V249.5L1237.75 258.75V283.5L1232.75 288.5V335L1228.5 339.25V493Z" fill="#4B4B4B"/>
<path d="M1181 683.5L1214 650.5M1181 37L1225.5 81.5M1225.5 81.5L1247 103L1247 144M1225.5 81.5V87.5L1238 100V135L1247 144M1247 144L1247 249.5L1237.75 258.75M1237.75 258.75L1228.5 268V339.25M1237.75 258.75V283.5L1232.75 288.5V335L1228.5 339.25M1228.5 339.25V493L1247 511.5V554M1214 650.5L1247 617.5V554M1214 650.5V635.5L1224.5 625V613L1243.5 594V557.5L1247 554" stroke="#4B4B4B"/>
<path fill-rule="evenodd" clip-rule="evenodd" d="M1239.38 516H1241V517.618L1231.25 527.373H1241V529.5H1227.5V516H1229.63L1229.63 525.755L1239.38 516Z" fill="#4B4B4B"/>
<path fill-rule="evenodd" clip-rule="evenodd" d="M1235.78 239H1235V239.779L1239.7 244.476H1235V245.5H1241.5V239H1240.48L1240.48 243.697L1235.78 239Z" fill="#4B4B4B"/>
<path d="M52.5 493L34 511.5V554V617.5L67 650.5V635.5L56.5 625V613L37.5 594V557.5L34 554V511.5L52.5 493V339.25V268L43.25 258.75L34 249.5V144L43 135V100L55.5 87.5V81.5L34 103V144V249.5L43.25 258.75V283.5L48.25 288.5V335L52.5 339.25V493Z" fill="#4B4B4B"/>
<path d="M100 683.5L67 650.5M100 37L55.5 81.5M55.5 81.5L34 103L34 144M55.5 81.5V87.5L43 100V135L34 144M34 144L34 249.5L43.25 258.75M43.25 258.75L52.5 268V339.25M43.25 258.75V283.5L48.25 288.5V335L52.5 339.25M52.5 339.25V493L34 511.5V554M67 650.5L34 617.5V554M67 650.5V635.5L56.5 625V613L37.5 594V557.5L34 554" stroke="#4B4B4B"/>
<path fill-rule="evenodd" clip-rule="evenodd" d="M40.6182 516H39V517.618L48.7545 527.373H39V529.5H52.5V516H50.3727L50.3727 525.755L40.6182 516Z" fill="#4B4B4B"/>
<path fill-rule="evenodd" clip-rule="evenodd" d="M44.2209 239H45V239.779L40.3034 244.476H45V245.5H38.5V239H39.5242L39.5242 243.697L44.2209 239Z" fill="#4B4B4B"/>
<defs>
<linearGradient id="paint0_linear_75_609" x1="29.5" y1="691" x2="29.5" y2="720" gradientUnits="userSpaceOnUse">
<stop stop-color="#262626"/>
<stop offset="1" stop-color="#262626" stop-opacity="0"/>
</linearGradient>
<linearGradient id="paint1_linear_75_609" x1="1251.5" y1="691" x2="1251.5" y2="720" gradientUnits="userSpaceOnUse">
<stop stop-color="#262626"/>
<stop offset="1" stop-color="#262626" stop-opacity="0"/>
</linearGradient>
</defs>
</svg>
