<svg width="310" height="14" viewBox="0 0 310 14" fill="none" xmlns="http://www.w3.org/2000/svg">
<path d="M14 0L0 14H10.5L24.5 0H14Z" fill="#C61818"/>
<path d="M135.333 0L121.333 14H131.833L145.833 0H135.333Z" fill="#C61818"/>
<path d="M44.3335 0L30.3335 14H40.8335L54.8335 0H44.3335Z" fill="#C61818"/>
<path d="M165.667 0L151.667 14H162.167L176.167 0H165.667Z" fill="#C61818"/>
<path d="M29.1665 0L15.1665 14H25.6665L39.6665 0H29.1665Z" fill="#C61818"/>
<path d="M150.5 0L136.5 14H147L161 0H150.5Z" fill="#C61818"/>
<path d="M59.5 0L45.5 14H56L70 0H59.5Z" fill="#C61818"/>
<path d="M180.833 0L166.833 14H177.333L191.333 0H180.833Z" fill="#C61818"/>
<path d="M74.6665 0L60.6665 14H71.1665L85.1665 0H74.6665Z" fill="#C61818"/>
<path d="M196 0L182 14H192.5L206.5 0H196Z" fill="#C61818"/>
<path d="M105 0L91 14H101.5L115.5 0H105Z" fill="#C61818"/>
<path d="M226.333 0L212.333 14H222.833L236.833 0H226.333Z" fill="#C61818"/>
<path d="M287 0L273 14H283.5L297.5 0H287Z" fill="#C61818"/>
<path d="M89.8335 0L75.8335 14H86.3335L100.333 0H89.8335Z" fill="#C61818"/>
<path d="M211.167 0L197.167 14H207.667L221.667 0H211.167Z" fill="#C61818"/>
<path d="M271.833 0L257.833 14H268.333L282.333 0H271.833Z" fill="#C61818"/>
<path d="M120.167 0L106.167 14H116.667L130.667 0H120.167Z" fill="#C61818"/>
<path d="M241.5 0L227.5 14H238L252 0H241.5Z" fill="#C61818"/>
<path d="M288.167 14L302.167 0H309.167V3.5L298.667 14H288.167Z" fill="#C61818"/>
<path d="M256.667 0L242.667 14H253.167L267.167 0H256.667Z" fill="#C61818"/>
<path d="M309.167 13.9998V8.1665L303.333 13.9998H309.167Z" fill="#C61818"/>
<path d="M0 9.33333V0H9.33333L0 9.33333Z" fill="#C61818"/>
</svg>
