<svg width="160" height="34" viewBox="0 0 160 34" fill="none" xmlns="http://www.w3.org/2000/svg">
<path d="M80.0019 5.3712H130.537L125.005 0H77.3969L64.9154 12.1229L71.5347 18.554H61.2816L55.1787 24.4835H82.1644L84.2414 22.4655L73.3244 11.8589L80.0019 5.3712Z" fill="#87A4F4"/>
<path d="M22.5753 18.2673L17.377 23.3179H26.2363L27.4359 24.4834H42.6001L46.9171 20.2853V18.2673H22.5753Z" fill="#87A4F4"/>
<path d="M35.9731 0H29.1403L0 28.312V34H4.5772L22.292 16.785H25.2153L33.1507 9.07899L34.0048 9.90881L30.4409 13.3714V16.785H46.9172V10.6368L35.9731 0Z" fill="#87A4F4"/>
<path d="M140.961 15.5026H136.92L131.52 20.7493H137.867L151.502 34H160L140.961 15.5026Z" fill="#87A4F4"/>
<path d="M131.757 6.55182L118.984 18.9539V24.4948H122.816L126.189 21.217H128.725L136.276 13.8806H139.3L131.757 6.55182Z" fill="#87A4F4"/>
<path d="M118.91 6.55182L110.334 14.8802L109.228 13.8052L103.754 19.1198V24.4835H111.421L123.802 12.4549V6.55182H118.91Z" fill="#87A4F4"/>
<path d="M103.921 6.55182L89.7114 20.3608V24.4835H96.4355L110.617 10.7047V6.55182H103.921Z" fill="#87A4F4"/>
<path d="M48.5981 0V8.08698L56.9217 0H48.5981Z" fill="#87A4F4"/>
<path d="M59.3637 0L48.5943 10.4633V20.8549L44.8479 24.4948H52.5231L56.7742 20.3645V11.84H58.4281L70.6106 0H59.3637Z" fill="#87A4F4"/>
<path d="M77.9172 11.9306H74.3105L79.8661 6.55182H83.4688L77.9172 11.9306ZM76.1158 11.2026H77.6066L81.6675 7.27603H80.1728L76.1158 11.2026Z" fill="#C61818"/>
<path d="M82.6923 11.9306H79.0857L84.6412 6.55182H88.2478L82.6923 11.9306ZM80.9065 11.2026H82.4011L86.4581 7.27603H84.9634L80.9065 11.2026Z" fill="#C61818"/>
<path d="M87.4987 11.9306H83.8921L89.4476 6.55182H93.0542L87.4987 11.9306ZM85.6973 11.2026H87.192L91.2335 7.27603H89.7388L85.6973 11.2026Z" fill="#C61818"/>
<path d="M11.608 34H6.17285L15.1021 25.3246H20.5373L11.608 34ZM8.03634 33.2456H11.2936L18.7048 26.079H15.4476L8.03634 33.2456Z" fill="#C61818"/>
<path d="M18.5494 34H13.1143L22.0435 25.3246H27.4787L18.5494 34ZM14.9777 33.2456H18.2466L25.6579 26.079H22.389L14.9777 33.2456Z" fill="#C61818"/>
<path d="M25.4911 34H20.0559L28.9851 25.3246H34.4203L25.4911 34ZM21.9194 33.2456H25.1766L32.5879 26.079H29.3307L21.9194 33.2456Z" fill="#C61818"/>
<path d="M92.2892 11.9306H88.6826L94.2381 6.55182H97.8331L92.2892 11.9306ZM90.4879 11.2026H91.9825L96.0395 7.27603H94.5487L90.4879 11.2026Z" fill="#C61818"/>
<path d="M97.08 11.9306H93.4773L99.0289 6.55182H102.636L97.08 11.9306ZM95.2787 11.2026H96.7733L100.83 7.27603H99.3395L95.2787 11.2026Z" fill="#C61818"/>
<path d="M90.0479 31.0461C90.0479 31.4994 90.7581 31.4994 90.7512 31.0461V29.3393H92.1648C92.8442 29.3393 93.3932 28.7892 93.3932 28.1359V27.7958C93.3932 27.1358 92.8476 26.5991 92.1648 26.5991H90.4013C90.2228 26.5991 90.0479 26.7158 90.0479 26.9424V31.0461ZM90.7512 27.2825H92.1648C92.309 27.2825 92.4325 27.3325 92.5354 27.4325C92.6383 27.5358 92.6898 27.6558 92.6898 27.7958V28.1359C92.6898 28.2825 92.6383 28.4059 92.5354 28.5059C92.4325 28.6059 92.309 28.6559 92.1648 28.6559H90.7512V27.2825Z" fill="#3D3D3D"/>
<path d="M94.0691 31.0461C94.0691 31.4994 94.7794 31.4994 94.7725 31.0461V29.3393H95.5822L96.7042 30.6694V31.0461C96.7042 31.4994 97.4144 31.4994 97.4076 31.0461V30.826C97.4076 30.4727 97.3973 30.406 97.1674 30.1293L96.4675 29.3026C97.0027 29.1793 97.4144 28.6959 97.4144 28.1359V27.7958C97.4144 27.1358 96.8689 26.5991 96.1861 26.5991H94.4225C94.2441 26.5991 94.0691 26.7158 94.0691 26.9424V31.0461ZM94.7725 27.2825H96.1861C96.3302 27.2825 96.4537 27.3325 96.5567 27.4325C96.6596 27.5358 96.7111 27.6558 96.7111 27.7958V28.1359C96.7111 28.2825 96.6596 28.4059 96.5567 28.5059C96.4537 28.6059 96.3302 28.6559 96.1861 28.6559H94.7725V27.2825Z" fill="#3D3D3D"/>
<path d="M98.0904 30.186C98.0904 30.8394 98.6565 31.3861 99.329 31.3861H100.207C100.887 31.3861 101.436 30.8394 101.436 30.186C101.436 29.9293 101.371 29.716 101.24 29.5426C100.976 29.1959 100.571 28.9626 100.115 28.7792C99.8848 28.6892 99.6755 28.5959 99.48 28.5059C99.2844 28.4159 99.1231 28.3159 98.9928 28.2059C98.8589 28.0959 98.7938 27.9625 98.7938 27.8025C98.7938 27.6558 98.8452 27.5325 98.9516 27.4325C99.0545 27.3325 99.178 27.2825 99.3221 27.2825H100.207C100.351 27.2825 100.475 27.3325 100.578 27.4325C100.681 27.5358 100.732 27.6558 100.732 27.7958C100.732 28.2492 101.443 28.2492 101.436 27.7958C101.436 27.1358 100.89 26.5991 100.207 26.5991H99.3221C98.6428 26.5991 98.0904 27.1491 98.0904 27.8025C98.0904 28.0559 98.1556 28.2692 98.2894 28.4425C98.5501 28.7892 98.955 29.0259 99.4148 29.2093C99.6447 29.2993 99.854 29.3926 100.05 29.4826C100.245 29.5726 100.406 29.6726 100.537 29.7826C100.667 29.8926 100.732 30.026 100.732 30.186C100.732 30.3293 100.684 30.4527 100.585 30.5527C100.485 30.6527 100.358 30.7027 100.207 30.7027H99.329C99.178 30.7027 99.0511 30.6527 98.9482 30.5527C98.8452 30.456 98.7938 30.3327 98.7938 30.186C98.8006 29.7326 98.0904 29.7393 98.0904 30.186Z" fill="#3D3D3D"/>
<path d="M102.112 31.0527C102.112 31.4961 102.822 31.4961 102.815 31.0527V28.1292L104.784 31.1961C104.829 31.2594 104.891 31.3094 104.966 31.3461C105.025 31.3728 105.08 31.3861 105.134 31.3861C105.152 31.3861 105.169 31.3861 105.186 31.3828C105.333 31.3594 105.457 31.2594 105.457 31.0594V26.9424C105.464 26.4857 104.754 26.4857 104.754 26.9424V29.8626L102.794 26.7924C102.746 26.7158 102.685 26.6624 102.606 26.6324C102.551 26.6091 102.496 26.5991 102.441 26.5991C102.42 26.5991 102.4 26.5991 102.383 26.6024C102.235 26.6257 102.112 26.7291 102.112 26.9291V31.0527Z" fill="#3D3D3D"/>
<path d="M106.133 31.0461C106.133 31.4994 106.843 31.4994 106.836 31.0461V30.3627H108.775V31.0461C108.775 31.4994 109.485 31.4994 109.478 31.0461V29.1793C109.478 28.9792 109.482 28.8559 109.437 28.7659L108.607 26.8524C108.535 26.6791 108.466 26.5991 108.25 26.5991H107.365C107.149 26.5991 107.076 26.6791 107.004 26.8524L106.178 28.7659C106.126 28.8559 106.133 28.9792 106.133 29.1793V31.0461ZM106.836 28.9893L107.595 27.2825H108.017L108.775 28.9893V29.6793H106.836V28.9893Z" fill="#3D3D3D"/>
<path d="M114.175 30.186C114.175 30.8394 114.742 31.3861 115.414 31.3861H116.292C116.972 31.3861 117.521 30.8394 117.521 30.186C117.521 29.9293 117.456 29.716 117.325 29.5426C117.061 29.1959 116.656 28.9626 116.2 28.7792C115.97 28.6892 115.761 28.5959 115.565 28.5059C115.369 28.4159 115.208 28.3159 115.078 28.2059C114.944 28.0959 114.879 27.9625 114.879 27.8025C114.879 27.6558 114.93 27.5325 115.037 27.4325C115.14 27.3325 115.263 27.2825 115.407 27.2825H116.292C116.437 27.2825 116.56 27.3325 116.663 27.4325C116.766 27.5358 116.817 27.6558 116.817 27.7958C116.817 28.2492 117.528 28.2492 117.521 27.7958C117.521 27.1358 116.975 26.5991 116.292 26.5991H115.407C114.728 26.5991 114.175 27.1491 114.175 27.8025C114.175 28.0559 114.241 28.2692 114.374 28.4425C114.635 28.7892 115.04 29.0259 115.5 29.2093C115.73 29.2993 115.939 29.3926 116.135 29.4826C116.33 29.5726 116.491 29.6726 116.622 29.7826C116.752 29.8926 116.817 30.026 116.817 30.186C116.817 30.3293 116.769 30.4527 116.67 30.5527C116.57 30.6527 116.443 30.7027 116.292 30.7027H115.414C115.263 30.7027 115.136 30.6527 115.033 30.5527C114.93 30.456 114.879 30.3327 114.879 30.186C114.886 29.7326 114.175 29.7393 114.175 30.186Z" fill="#3D3D3D"/>
<path d="M118.286 27.1758C118.344 27.2458 118.433 27.2825 118.55 27.2825H119.518V31.0527C119.518 31.5061 120.228 31.5061 120.221 31.0527V27.2825H121.192C121.659 27.2891 121.659 26.5991 121.192 26.5991H118.55C118.2 26.5957 118.107 26.9858 118.286 27.1758Z" fill="#3D3D3D"/>
<path d="M122.218 30.3627C122.218 30.9261 122.691 31.3861 123.275 31.3861H124.51C125.09 31.3861 125.563 30.9261 125.563 30.3627V26.9424C125.57 26.4924 124.86 26.4924 124.86 26.9424V30.3627C124.86 30.5427 124.695 30.7027 124.51 30.7027H123.275C123.182 30.7027 123.1 30.6694 123.028 30.5994C122.956 30.5327 122.921 30.4527 122.921 30.3627V26.9424C122.928 26.4924 122.218 26.4924 122.218 26.9424V30.3627Z" fill="#3D3D3D"/>
<path d="M126.239 31.0461C126.239 31.1361 126.274 31.2161 126.346 31.2827C126.418 31.3528 126.5 31.3861 126.593 31.3861H128.531C129.111 31.3861 129.585 30.9194 129.585 30.356V27.6258C129.581 27.0524 129.114 26.6091 128.531 26.5991H126.593C126.5 26.5991 126.418 26.6324 126.346 26.7024C126.274 26.7724 126.239 26.8524 126.239 26.9424V31.0461ZM126.943 27.2825H128.531C128.727 27.2825 128.881 27.4358 128.881 27.6258V30.356C128.881 30.546 128.727 30.7027 128.531 30.7027H126.943V27.2825Z" fill="#3D3D3D"/>
<path d="M130.35 31.2861C130.408 31.3561 130.497 31.3928 130.614 31.3928H133.256C133.722 31.3994 133.722 30.7094 133.256 30.7094H132.285V27.2825H133.256C133.722 27.2891 133.722 26.5991 133.256 26.5991H130.614C130.144 26.5991 130.144 27.2891 130.614 27.2825H131.581V30.7094H130.614C130.264 30.706 130.171 31.0961 130.35 31.2861Z" fill="#3D3D3D"/>
<path d="M134.282 30.356C134.282 30.9194 134.755 31.3861 135.339 31.3861H136.567C137.147 31.3861 137.62 30.9194 137.62 30.356V27.6258C137.617 27.0524 137.15 26.6091 136.567 26.5991H135.339C134.752 26.5991 134.282 27.0591 134.282 27.6258V30.356ZM134.985 27.6258C134.985 27.4358 135.15 27.2825 135.339 27.2825H136.567C136.756 27.2825 136.917 27.4358 136.917 27.6258V30.356C136.917 30.546 136.756 30.7027 136.567 30.7027H135.339C135.15 30.7027 134.985 30.546 134.985 30.356V27.6258Z" fill="#3D3D3D"/>
</svg>
