<svg width="24" height="106" viewBox="0 0 24 106" fill="none" xmlns="http://www.w3.org/2000/svg">
<path fill-rule="evenodd" clip-rule="evenodd" d="M23.1 2.66667H0V0H23.1V2.66667Z" fill="#3D3D3D"/>
<path fill-rule="evenodd" clip-rule="evenodd" d="M15.4 7.13344H7.69995V5.80011H15.4V7.13344Z" fill="#3D3D3D"/>
<path fill-rule="evenodd" clip-rule="evenodd" d="M15.4 32.8001H7.69995V31.4668H15.4V32.8001Z" fill="#3D3D3D"/>
<path fill-rule="evenodd" clip-rule="evenodd" d="M15.4 58.4668H7.69995V57.1335H15.4V58.4668Z" fill="#3D3D3D"/>
<path fill-rule="evenodd" clip-rule="evenodd" d="M15.4 84.1335H7.69995V82.8002H15.4V84.1335Z" fill="#3D3D3D"/>
<path fill-rule="evenodd" clip-rule="evenodd" d="M15.4 12.2666H7.69995V10.9333H15.4V12.2666Z" fill="#3D3D3D"/>
<path fill-rule="evenodd" clip-rule="evenodd" d="M15.4 37.9332H7.69995V36.5999H15.4V37.9332Z" fill="#3D3D3D"/>
<path fill-rule="evenodd" clip-rule="evenodd" d="M15.4 63.5999H7.69995V62.2666H15.4V63.5999Z" fill="#3D3D3D"/>
<path fill-rule="evenodd" clip-rule="evenodd" d="M15.4 89.2666H7.69995V87.9332H15.4V89.2666Z" fill="#3D3D3D"/>
<path fill-rule="evenodd" clip-rule="evenodd" d="M15.4 17.4H7.69995V16.0667H15.4V17.4Z" fill="#3D3D3D"/>
<path fill-rule="evenodd" clip-rule="evenodd" d="M15.4 43.0667H7.69995V41.7334H15.4V43.0667Z" fill="#3D3D3D"/>
<path fill-rule="evenodd" clip-rule="evenodd" d="M15.4 68.7334H7.69995V67.4001H15.4V68.7334Z" fill="#3D3D3D"/>
<path fill-rule="evenodd" clip-rule="evenodd" d="M15.4 94.4001H7.69995V93.0668H15.4V94.4001Z" fill="#3D3D3D"/>
<path fill-rule="evenodd" clip-rule="evenodd" d="M15.4 22.5332H7.69995V21.1999H15.4V22.5332Z" fill="#3D3D3D"/>
<path fill-rule="evenodd" clip-rule="evenodd" d="M15.4 48.1998H7.69995V46.8665H15.4V48.1998Z" fill="#3D3D3D"/>
<path fill-rule="evenodd" clip-rule="evenodd" d="M15.4 73.8665H7.69995V72.5332H15.4V73.8665Z" fill="#3D3D3D"/>
<path fill-rule="evenodd" clip-rule="evenodd" d="M15.4 99.5332H7.69995V98.1998H15.4V99.5332Z" fill="#3D3D3D"/>
<path fill-rule="evenodd" clip-rule="evenodd" d="M23.1 28.3334H0V25.6667H23.1V28.3334Z" fill="#3D3D3D"/>
<path fill-rule="evenodd" clip-rule="evenodd" d="M23.1 54H0V51.3333H23.1V54Z" fill="#3D3D3D"/>
<path fill-rule="evenodd" clip-rule="evenodd" d="M23.1 79.6667H0V77H23.1V79.6667Z" fill="#3D3D3D"/>
<path fill-rule="evenodd" clip-rule="evenodd" d="M23.1 105.333H0V102.667H23.1V105.333Z" fill="#3D3D3D"/>
</svg>
